<svg xmlns="http://www.w3.org/2000/svg" width="15.516" height="14.507" viewBox="0 0 15.516 14.507">
  <path id="basket" d="M14.691,2.6a.777.777,0,0,1,.6.278.835.835,0,0,1,.217.65l-.82,5.645a.774.774,0,0,1-.789.665H4.778l.139.82h8.166a.753.753,0,0,1,.572.247.86.86,0,0,1,.247.557.742.742,0,0,1-.247.572.692.692,0,0,1-.572.232H4.237a.8.8,0,0,1-.541-.2.654.654,0,0,1-.247-.464l-1.516-9H.819a.778.778,0,0,1-.572-.232A.834.834,0,0,1,0,1.8a.647.647,0,0,1,.247-.557A1.053,1.053,0,0,1,.819.992H2.613a.819.819,0,0,1,.526.186.7.7,0,0,1,.263.495l.17.928h11.12Zm-.928,1.624H10.67V5.817h2.861Zm-3.9,0H7.438V5.817H9.866Zm0,2.413H7.438V8.245H9.866ZM6.649,4.224H3.835l.278,1.624a.22.22,0,0,1,.124-.031H6.649ZM4.237,6.637,4.5,8.245h2.15V6.637ZM10.67,8.245h2.536l.217-1.608H10.67V8.245ZM4.237,14.277A1.059,1.059,0,0,1,5.427,13.07a1.073,1.073,0,0,1,1.222,1.206A1.08,1.08,0,0,1,5.427,15.5,1.066,1.066,0,0,1,4.237,14.277Zm7.253,0a1.059,1.059,0,0,1,1.191-1.206A1.073,1.073,0,0,1,13.9,14.277,1.08,1.08,0,0,1,12.681,15.5,1.066,1.066,0,0,1,11.49,14.277Z" transform="translate(0.002 -0.992)" fill="#f6c64b"/>
</svg>
