<svg xmlns="http://www.w3.org/2000/svg" width="12.843" height="14.334" viewBox="0 0 12.843 14.334">
  <path id="box-2" d="M11.468,3.168H8.917V5.6H7.326V3.168H4.7a.612.612,0,0,0-.616.616v6.765a.612.612,0,0,0,.616.616h6.765a.612.612,0,0,0,.616-.616V3.784a.612.612,0,0,0-.616-.616Zm-3.44,9.976-1.663-.96a.127.127,0,0,0-.186.115v.516H3.728a1.2,1.2,0,0,1-1.2-1.19V7.167h-.86v4.458a2.065,2.065,0,0,0,2.064,2.064H6.179V14.2a.127.127,0,0,0,.186.115l1.648-.96A.128.128,0,0,0,8.028,13.144ZM12.443.659H10.006V.129a.138.138,0,0,0-.2-.115L8.157.975a.122.122,0,0,0,0,.215l1.648.96a.133.133,0,0,0,.2-.115V1.519h2.437a1.2,1.2,0,0,1,1.2,1.19V7.167h.86V2.709A2.052,2.052,0,0,0,12.443.659Z" transform="translate(-1.664 0)" fill="#f6c64b"/>
</svg>
