<svg xmlns="http://www.w3.org/2000/svg" width="13.264" height="13.269" viewBox="0 0 13.264 13.269">
  <path id="clock" d="M7.73,5.875V9.742a.253.253,0,0,1-.077.186.272.272,0,0,1-.2.077H4.7a.272.272,0,0,1-.2-.077.253.253,0,0,1-.077-.186V9.185A.265.265,0,0,1,4.7,8.907H6.632V5.875a.272.272,0,0,1,.077-.2A.253.253,0,0,1,6.9,5.6h.557a.265.265,0,0,1,.278.278Zm3.588,3.031a4.516,4.516,0,0,0-.634-2.351,4.93,4.93,0,0,0-1.7-1.717,4.331,4.331,0,0,0-2.351-.634,4.807,4.807,0,0,0-2.366.634,4.462,4.462,0,0,0-1.7,1.717,4.838,4.838,0,0,0-.634,2.351,4.429,4.429,0,0,0,.634,2.351,4.764,4.764,0,0,0,1.7,1.717,4.691,4.691,0,0,0,2.366.634,4.236,4.236,0,0,0,2.351-.634,5.307,5.307,0,0,0,1.7-1.717A4.161,4.161,0,0,0,11.318,8.907Zm1.933,0a6.5,6.5,0,0,1-.882,3.325,6.6,6.6,0,0,1-2.413,2.413,6.463,6.463,0,0,1-3.325.9,6.545,6.545,0,0,1-3.341-.9,6.337,6.337,0,0,1-2.4-2.413A7.058,7.058,0,0,1,0,8.907a5.874,5.874,0,0,1,.9-3.325,7.346,7.346,0,0,1,2.4-2.413,6.231,6.231,0,0,1,3.341-.9,6.152,6.152,0,0,1,3.325.9A7.7,7.7,0,0,1,12.37,5.582,5.484,5.484,0,0,1,13.252,8.907Z" transform="translate(0.005 -2.272)" fill="#f6c64b"/>
</svg>
