<svg xmlns="http://www.w3.org/2000/svg" width="15.465" height="12.28" viewBox="0 0 15.465 12.28">
  <path id="cut" d="M13.5,11.663,8.3,10.658,7.949,8.833a2.8,2.8,0,1,0-1.1.046l.294,1.562-1.562-.309A2.719,2.719,0,0,0,4.794,8.6a2.8,2.8,0,0,0-1.98-.82A2.815,2.815,0,1,0,5.552,11.23l1.825.356.557,2.907a.542.542,0,0,0,.031,1.083H9.032a.541.541,0,1,0,0-1.083L8.521,11.8l4.779.928c.031,0,.062.015.093.015a.546.546,0,0,0,.108-1.083ZM5.583,6.1A1.724,1.724,0,1,1,7.3,7.827h0A1.726,1.726,0,0,1,5.583,6.1ZM2.815,12.312A1.724,1.724,0,1,1,4.036,9.374a1.728,1.728,0,0,1-1.222,2.938Zm-.742,3.263h.541a.538.538,0,0,0,.541-.541.548.548,0,0,0-.541-.541H2.072a.538.538,0,0,0-.541.541A.529.529,0,0,0,2.072,15.576Zm10.161,0a.542.542,0,0,0,.557-.541.551.551,0,0,0-.557-.541H11.166a.548.548,0,0,0-.541.541.538.538,0,0,0,.541.541Zm-6.418,0a.542.542,0,0,0,.557-.541.551.551,0,0,0-.557-.541H4.748a.548.548,0,0,0-.541.541.538.538,0,0,0,.541.541Zm9.109-1.083h-.541a.551.551,0,0,0-.557.541.542.542,0,0,0,.557.541h.541a.538.538,0,0,0,.541-.541A.548.548,0,0,0,14.924,14.493Z" transform="translate(0 -3.296)" fill="#f6c64b"/>
</svg>
