<svg xmlns="http://www.w3.org/2000/svg" width="11.352" height="14.333" viewBox="0 0 11.352 14.333">
  <path id="dollar-symbol" d="M9,11.295A4.127,4.127,0,1,0,4.876,7.167,4.129,4.129,0,0,0,9,11.295ZM7.571,8.8a3.28,3.28,0,0,1,.115-.4c.043-.158.086-.186.229-.1a2.1,2.1,0,0,0,.774.229A1.078,1.078,0,0,0,9.2,8.457a.389.389,0,0,0,.086-.688A1.172,1.172,0,0,0,9,7.6a4.91,4.91,0,0,1-.788-.358,1.116,1.116,0,0,1-.645-1.075,1.193,1.193,0,0,1,.874-1.089c.2-.086.215-.072.215-.3V4.544c0-.158.029-.186.2-.2H9c.358,0,.358,0,.358.358,0,.244,0,.244.258.287a1.855,1.855,0,0,1,.545.172c.1.043.143.1.115.2-.057.158-.086.315-.143.459s-.086.172-.229.1a1.8,1.8,0,0,0-.874-.172.649.649,0,0,0-.229.043.336.336,0,0,0-.086.588,1.278,1.278,0,0,0,.387.215c.229.1.459.2.688.315a1.258,1.258,0,0,1,.4,1.892,1.344,1.344,0,0,1-.688.43.206.206,0,0,0-.172.229,2.989,2.989,0,0,1,0,.358c0,.115-.057.172-.158.172h-.4c-.115,0-.158-.072-.158-.172S8.6,9.632,8.6,9.546c0-.2,0-.2-.186-.229a2.834,2.834,0,0,1-.7-.2c-.186-.086-.2-.143-.143-.315Zm5.905,2.838a6.332,6.332,0,0,1-8.686.244h.788v-.846H3.328v2.25h.846V12.47a7.177,7.177,0,0,0,9.89-.229l.3-.3-.588-.6Zm.358-10.592v.817a7.2,7.2,0,0,0-9.9.229l-.287.3.588.6.315-.3a6.314,6.314,0,0,1,8.672-.244H12.43V3.3h2.25V1.046h-.846Z" transform="translate(-3.328)" fill="#f6c64b"/>
</svg>
