<svg xmlns="http://www.w3.org/2000/svg" width="14.063" height="15" viewBox="0 0 14.063 15">
  <g id="download" transform="translate(-16)">
    <g id="Group_1043" data-name="Group 1043" transform="translate(19.281)">
      <g id="Group_1042" data-name="Group 1042">
        <path id="Path_721" data-name="Path 721" d="M135.456,6.837a.468.468,0,0,0-.427-.275h-1.875V.469A.469.469,0,0,0,132.686,0h-1.875a.469.469,0,0,0-.469.469V6.563h-1.875a.469.469,0,0,0-.353.777l3.281,3.75a.468.468,0,0,0,.705,0l3.281-3.75A.467.467,0,0,0,135.456,6.837Z" transform="translate(-127.998)" fill="#fcb243"/>
      </g>
    </g>
    <g id="Group_1045" data-name="Group 1045" transform="translate(16 10.313)">
      <g id="Group_1044" data-name="Group 1044">
        <path id="Path_722" data-name="Path 722" d="M28.188,352v2.813H17.875V352H16v3.75a.937.937,0,0,0,.938.938H29.125a.937.937,0,0,0,.938-.937V352Z" transform="translate(-16 -352)" fill="#fcb243"/>
      </g>
    </g>
  </g>
</svg>
