<svg id="Group_4320" data-name="Group 4320" xmlns="http://www.w3.org/2000/svg" width="18.667" height="19.101" viewBox="0 0 18.667 19.101">
  <path id="Path_27913" data-name="Path 27913" d="M51.728,280.729h.291a.383.383,0,0,0,0-.766h-.291a.383.383,0,0,0,0,.766Z" transform="translate(-49.49 -269.495)"/>
  <path id="Path_27914" data-name="Path 27914" d="M101.957,280.729a.383.383,0,0,0,0-.766H99.746a.383.383,0,0,0,0,.766Z" transform="translate(-95.758 -269.495)"/>
  <path id="Path_27915" data-name="Path 27915" d="M51.728,328.2H55.69a.383.383,0,0,0,0-.766H51.728a.383.383,0,0,0,0,.766Z" transform="translate(-49.49 -315.145)"/>
  <path id="Path_27916" data-name="Path 27916" d="M14.318,14.165V7.745A1.219,1.219,0,0,0,13.131,6.5H1.186A1.218,1.218,0,0,0,0,7.745V12.3a.374.374,0,0,0,.365.383A.374.374,0,0,0,.729,12.3V7.745a.469.469,0,0,1,.457-.48H4.568v4.965a.386.386,0,0,0,.187.334.35.35,0,0,0,.369-.008L7.159,11.24l2.035,1.317a.368.368,0,0,0,.556-.326V7.266h3.382a.47.47,0,0,1,.458.48v6.308q-.213-.017-.431-.018a5.657,5.657,0,0,0-5.509,5.783,6.078,6.078,0,0,0,.074.945H1.186a.47.47,0,0,1-.457-.481V15.732a.374.374,0,0,0-.365-.383A.374.374,0,0,0,0,15.732v4.551a1.219,1.219,0,0,0,1.186,1.246H7.895A5.558,5.558,0,0,0,13.158,25.6a5.657,5.657,0,0,0,5.509-5.783,5.734,5.734,0,0,0-4.349-5.653Zm-5.3-2.62L7.35,10.464a.35.35,0,0,0-.383,0L5.3,11.545V7.266H9.02Zm4.138,13.291a4.908,4.908,0,0,1-4.78-5.017,4.908,4.908,0,0,1,4.78-5.017,4.908,4.908,0,0,1,4.78,5.017A4.908,4.908,0,0,1,13.158,24.836Z" transform="translate(0 -6.5)"/>
  <path id="Path_27917" data-name="Path 27917" d="M282.494,262.964H281.1l.65-.682a.4.4,0,0,0,0-.541.353.353,0,0,0-.516,0l-1.273,1.335a.4.4,0,0,0,0,.542l1.273,1.335a.352.352,0,0,0,.516,0,.4.4,0,0,0,0-.541l-.65-.682h1.393a1.682,1.682,0,0,1,0,3.36H279.2a.383.383,0,0,0,0,.766h3.29a2.448,2.448,0,0,0,0-4.891Z" transform="translate(-268.674 -251.862)"/>
  <path id="Path_27918" data-name="Path 27918" d="M.365,193.562a.384.384,0,0,0,0-.767.374.374,0,0,0-.365.383v0A.373.373,0,0,0,.365,193.562Z" transform="translate(0 -185.664)"/>
</svg>
