<svg id="instagram_7_" data-name="instagram (7)" xmlns="http://www.w3.org/2000/svg" width="41.259" height="41.259" viewBox="0 0 41.259 41.259">
  <path id="Path_29253" data-name="Path 29253" d="M214.9,210.949A3.949,3.949,0,1,1,210.949,207,3.949,3.949,0,0,1,214.9,210.949Zm0,0" transform="translate(-190.319 -190.319)" fill="#f6c64b"/>
  <path id="Path_29254" data-name="Path 29254" d="M154.431,138.214a3.923,3.923,0,0,0-2.248-2.248,6.554,6.554,0,0,0-2.2-.408c-1.249-.057-1.624-.069-4.787-.069s-3.538.012-4.787.069a6.558,6.558,0,0,0-2.2.408,3.925,3.925,0,0,0-2.248,2.248,6.556,6.556,0,0,0-.408,2.2c-.057,1.249-.069,1.624-.069,4.787s.012,3.538.069,4.787a6.553,6.553,0,0,0,.408,2.2,3.923,3.923,0,0,0,2.248,2.248,6.546,6.546,0,0,0,2.2.408c1.249.057,1.623.069,4.787.069s3.538-.012,4.787-.069a6.547,6.547,0,0,0,2.2-.408,3.923,3.923,0,0,0,2.248-2.248,6.56,6.56,0,0,0,.408-2.2c.057-1.249.069-1.624.069-4.787s-.012-3.538-.069-4.787A6.545,6.545,0,0,0,154.431,138.214ZM145.2,151.283a6.083,6.083,0,1,1,6.083-6.083A6.083,6.083,0,0,1,145.2,151.283ZM151.52,140.3a1.422,1.422,0,1,1,1.422-1.422A1.422,1.422,0,0,1,151.52,140.3Zm0,0" transform="translate(-124.567 -124.57)" fill="#f6c64b"/>
  <path id="Path_29255" data-name="Path 29255" d="M20.629,0A20.629,20.629,0,1,0,41.259,20.629,20.632,20.632,0,0,0,20.629,0ZM32.4,25.513a8.691,8.691,0,0,1-.551,2.876,6.057,6.057,0,0,1-3.464,3.464,8.7,8.7,0,0,1-2.875.551c-1.263.058-1.667.071-4.884.071s-3.621-.014-4.884-.071a8.7,8.7,0,0,1-2.875-.551,6.057,6.057,0,0,1-3.464-3.464,8.689,8.689,0,0,1-.551-2.875c-.058-1.264-.072-1.667-.072-4.884s.014-3.621.071-4.884a8.692,8.692,0,0,1,.55-2.876A6.061,6.061,0,0,1,12.87,9.406a8.7,8.7,0,0,1,2.875-.551c1.263-.058,1.667-.071,4.884-.071s3.621.014,4.884.072a8.7,8.7,0,0,1,2.875.55,6.059,6.059,0,0,1,3.464,3.465,8.69,8.69,0,0,1,.551,2.876c.058,1.263.071,1.667.071,4.884S32.461,24.25,32.4,25.513Zm0,0" transform="translate(0)" fill="#f6c64b"/>
</svg>
