<svg xmlns="http://www.w3.org/2000/svg" width="167.726" height="171.499" viewBox="0 0 167.726 171.499">
  <g id="question" transform="translate(0 0)">
    <g id="Group_4322" data-name="Group 4322" transform="translate(47.836 22.088)">
      <g id="Group_4321" data-name="Group 4321">
        <path id="Path_27919" data-name="Path 27919" d="M169.122,68.594a37.519,37.519,0,0,0-23.1,34.781,9.831,9.831,0,1,0,19.658,0,17.094,17.094,0,0,1,16.906-17.293c9.217,0,16.929,7.945,16.929,17.277a17.2,17.2,0,0,1-10.851,16.165,24.835,24.835,0,0,0-11.559,9.236c-5.189,7.66-4.335,14.123-4.335,24.162a10.425,10.425,0,0,0,.272,2.364,2.465,2.465,0,0,0,2.388,1.922,2.5,2.5,0,0,0,2.392-3.1c-.192-.814-.141-.24-.141-11.095a20.1,20.1,0,0,1,12.745-18.8c14.594-5.716,18.889-24.995,7.565-36.569-13.791-14.085-37.247-4.049-37.225,15.732a4.916,4.916,0,1,1-9.829,0c-.007-18.108,14.879-33.528,33.671-32.3,16.3,1.037,29.651,15.025,29.651,32.3a32.157,32.157,0,0,1-20.3,30.213,10.11,10.11,0,0,0-4.672,3.7c-2.228,3.248-1.769,5.134-1.769,15.632a4.988,4.988,0,0,1-4.915,5.02,2.488,2.488,0,0,0-2.457,2.512c0,5.274,12.275,2.061,12.286-7.532v-9.909a5.064,5.064,0,0,1,3.289-4.731,37.261,37.261,0,0,0,23.455-34.9C219.174,77.141,193.1,58.863,169.122,68.594Z" transform="translate(-146.024 -65.942)" fill="#fff"/>
      </g>
    </g>
    <g id="Group_4324" data-name="Group 4324" transform="translate(74.579 129.282)">
      <g id="Group_4323" data-name="Group 4323">
        <path id="Path_27920" data-name="Path 27920" d="M245.876,390.819a9.67,9.67,0,0,0-16.564-.352c-4.282,6.591.209,15.6,8.26,15.6C244.989,406.065,249.931,397.689,245.876,390.819Zm-9.557,10.065a4.848,4.848,0,0,1-3.643-3.874c-1.006-5.554,6.172-8.371,8.992-3.594A4.96,4.96,0,0,1,236.319,400.884Z" transform="translate(-227.659 -385.96)" fill="#fff"/>
      </g>
    </g>
    <g id="Group_4326" data-name="Group 4326" transform="translate(0 0)">
      <g id="Group_4325" data-name="Group 4325">
        <path id="Path_27921" data-name="Path 27921" d="M125.921,11.566C82.278-14.326,26.2,4.964,6.594,52.391A87.791,87.791,0,0,0,4.2,112.613c4.349,13.475,11.494,23.28,12.07,23.8l.01-.013-.007.017c.007.007.013.01.023.02s0,0,.007.007,0,0,.007.007a2.4,2.4,0,0,0,2.035.566l.007,0a2.251,2.251,0,0,0,.465-.137h.007l.056-.027h.007a2.544,2.544,0,0,0,1.009-3.788c-37.918-53.5-.017-128.005,63.98-128.005,44.168,0,78.959,36.83,78.959,80.706,0,44.6-35.317,80.706-78.959,80.706a77.248,77.248,0,0,1-46.281-15.317,2.436,2.436,0,0,0-2.611-.174L7.4,166.241a1.69,1.69,0,0,1-2.487-1.484c.007-.6-.6.715,10.474-20.187a2.513,2.513,0,0,0-2.156-3.707,2.449,2.449,0,0,0-2.162,1.316C-.071,163.214,0,162.509,0,164.757a6.608,6.608,0,0,0,9.741,5.9l26.233-14.524a82.368,82.368,0,0,0,94.793.713C182.089,121.42,179.486,43.337,125.921,11.566Z" transform="translate(0 0)" fill="#fff"/>
      </g>
    </g>
  </g>
</svg>
