<svg xmlns="http://www.w3.org/2000/svg" width="14.974" height="15.465" viewBox="0 0 14.974 15.465">
  <path id="register" d="M15.266,7.965,13.008,5.707a.756.756,0,0,0-1.067,0l-.448.448V.742A.756.756,0,0,0,10.735,0H1.27A.756.756,0,0,0,.512.742V12.728a.756.756,0,0,0,.758.742H5.507v1.253a.743.743,0,0,0,.742.742H8.508a.773.773,0,0,0,.541-.217l6.217-6.217a.756.756,0,0,0,0-1.067ZM2.012,1.5h7.98V7.655L5.724,11.924l-.046.046H2.012V1.5ZM8.2,13.965H7.007V12.759L12.467,7.3l1.206,1.191Z" transform="translate(-0.512 0)" fill="#f6c64b"/>
</svg>
