<svg xmlns="http://www.w3.org/2000/svg" width="14.333" height="14.333" viewBox="0 0 14.333 14.333">
  <path id="sad" d="M7.167,0a7.167,7.167,0,1,0,7.167,7.167A7.169,7.169,0,0,0,7.167,0Zm0,13.029a5.862,5.862,0,1,1,5.862-5.862A5.86,5.86,0,0,1,7.167,13.029Zm0-5.217h0A3.716,3.716,0,0,0,4.5,8.915a.649.649,0,1,0,.917.917,2.5,2.5,0,0,1,1.749-.717,2.472,2.472,0,0,1,1.749.717.649.649,0,0,0,.917-.917A3.716,3.716,0,0,0,7.167,7.812ZM5,6.393A.874.874,0,0,0,4.386,4.9a.919.919,0,0,0-.616.258.9.9,0,0,0,0,1.233.919.919,0,0,0,.616.258A.892.892,0,0,0,5,6.393ZM9.947,4.9a.881.881,0,1,0,.616.258A.892.892,0,0,0,9.947,4.9Z" fill="#f6c64b"/>
</svg>
