<svg xmlns="http://www.w3.org/2000/svg" width="18.842" height="18" viewBox="0 0 18.842 18">
  <g id="search" transform="translate(-0.196)">
    <path id="Path_27922" data-name="Path 27922" d="M7.961,14.825A7.6,7.6,0,0,1,.2,7.412,7.6,7.6,0,0,1,7.961,0a7.6,7.6,0,0,1,7.765,7.412,7.6,7.6,0,0,1-7.765,7.412Zm0-13.419A6.162,6.162,0,0,0,1.668,7.412a6.162,6.162,0,0,0,6.293,6.007,6.162,6.162,0,0,0,6.293-6.007A6.162,6.162,0,0,0,7.961,1.405ZM18.823,17.794a.68.68,0,0,0,0-.994l-3.294-3.144a.761.761,0,0,0-1.041,0,.68.68,0,0,0,0,.994l3.294,3.144a.761.761,0,0,0,1.041,0Z"/>
  </g>
</svg>
