<svg xmlns="http://www.w3.org/2000/svg" width="22" height="13.916" viewBox="0 0 22 13.916">
  <g id="shipped_2_" data-name="shipped (2)" transform="translate(0 -94.062)">
    <g id="Group_4303" data-name="Group 4303" transform="translate(0 94.062)">
      <g id="Group_4302" data-name="Group 4302" transform="translate(0 0)">
        <path id="Path_27904" data-name="Path 27904" d="M20.46,99.962l-.57-2.279a.345.345,0,0,0,.273-.337v-.367a1.448,1.448,0,0,0-1.447-1.447H16.121v-.758a.713.713,0,0,0-.712-.712H2.182a.713.713,0,0,0-.712.712v6.246a.344.344,0,1,0,.689,0V94.774a.023.023,0,0,1,.023-.023H15.409a.023.023,0,0,1,.023.023v6.246a.344.344,0,1,0,.689,0v-.391h4.065a1.127,1.127,0,0,1,1.07.781H20.186a.344.344,0,0,0-.344.344v.735a1.081,1.081,0,0,0,1.079,1.079h.39v1.516h-.9a2.181,2.181,0,0,0-4.123,0h-.166v-2.6a.344.344,0,1,0-.689,0v2.595H8.285a2.181,2.181,0,0,0-4.123,0H2.182a.023.023,0,0,1-.023-.023V104.3H3.651a.344.344,0,0,0,0-.689H.344a.344.344,0,0,0,0,.689H1.47v.758a.713.713,0,0,0,.712.712H4.042c0,.008,0,.015,0,.023a2.182,2.182,0,1,0,4.363,0c0-.008,0-.015,0-.023h7.763c0,.008,0,.015,0,.023a2.182,2.182,0,1,0,4.363,0c0-.008,0-.015,0-.023h1.126a.344.344,0,0,0,.344-.344v-3.674A1.817,1.817,0,0,0,20.46,99.962Zm-4.339-3.741h2.595a.759.759,0,0,1,.758.758V97H16.121Zm0,3.72V97.69h3.061l.563,2.251H16.121Zm-9.9,7.349A1.493,1.493,0,1,1,7.716,105.8,1.494,1.494,0,0,1,6.223,107.29Zm12.125,0a1.493,1.493,0,1,1,1.493-1.493A1.494,1.494,0,0,1,18.349,107.29Zm2.962-4.409h-.39a.391.391,0,0,1-.39-.39v-.39h.781v.781Z" transform="translate(0 -94.062)"/>
      </g>
    </g>
    <g id="Group_4305" data-name="Group 4305" transform="translate(5.511 105.085)">
      <g id="Group_4304" data-name="Group 4304">
        <path id="Path_27905" data-name="Path 27905" d="M128.979,350.6a.712.712,0,1,0,.712.712A.713.713,0,0,0,128.979,350.6Z" transform="translate(-128.267 -350.597)"/>
      </g>
    </g>
    <g id="Group_4307" data-name="Group 4307" transform="translate(17.637 105.085)">
      <g id="Group_4306" data-name="Group 4306">
        <path id="Path_27906" data-name="Path 27906" d="M411.167,350.6a.712.712,0,1,0,.712.712A.713.713,0,0,0,411.167,350.6Z" transform="translate(-410.455 -350.597)"/>
      </g>
    </g>
    <g id="Group_4309" data-name="Group 4309" transform="translate(8.818 103.615)">
      <g id="Group_4308" data-name="Group 4308" transform="translate(0 0)">
        <path id="Path_27907" data-name="Path 27907" d="M210.716,316.393h-5.144a.344.344,0,0,0,0,.689h5.144a.344.344,0,1,0,0-.689Z" transform="translate(-205.227 -316.393)"/>
      </g>
    </g>
    <g id="Group_4311" data-name="Group 4311" transform="translate(0.735 102.146)">
      <g id="Group_4310" data-name="Group 4310" transform="translate(0 0)">
        <path id="Path_27908" data-name="Path 27908" d="M21.856,282.188H17.446a.344.344,0,0,0,0,.689h4.409a.344.344,0,0,0,0-.689Z" transform="translate(-17.102 -282.188)"/>
      </g>
    </g>
    <g id="Group_4313" data-name="Group 4313" transform="translate(6.246 97.369)">
      <g id="Group_4312" data-name="Group 4312">
        <path id="Path_27909" data-name="Path 27909" d="M151.1,171.123a.345.345,0,0,0-.487,0l-3.063,3.063-1.594-1.594a.344.344,0,0,0-.487.487l1.837,1.837a.344.344,0,0,0,.487,0l3.307-3.307A.345.345,0,0,0,151.1,171.123Z" transform="translate(-145.37 -171.023)"/>
      </g>
    </g>
  </g>
</svg>
