<svg xmlns="http://www.w3.org/2000/svg" width="13.686" height="13.15" viewBox="0 0 13.686 13.15">
  <path id="thumbs-up-alt" d="M2.192,12.679a.5.5,0,0,0-.169-.383.623.623,0,0,0-.383-.169.5.5,0,0,0-.383.169.623.623,0,0,0-.169.383.5.5,0,0,0,.169.383.623.623,0,0,0,.383.169.5.5,0,0,0,.383-.169A.623.623,0,0,0,2.192,12.679ZM3.556,8.3v5.471a.52.52,0,0,1-.153.383.594.594,0,0,1-.4.169H.552a.5.5,0,0,1-.383-.169A.623.623,0,0,1,0,13.767V8.3a.528.528,0,0,1,.169-.383.476.476,0,0,1,.383-.153H3a.573.573,0,0,1,.4.153.452.452,0,0,1,.153.383Zm10.131,0a1.855,1.855,0,0,1-.475,1.272,2,2,0,0,1,.138.659,1.842,1.842,0,0,1-.368,1.165,1.887,1.887,0,0,1,0,1.012,1.755,1.755,0,0,1-.475.8,2.082,2.082,0,0,1-.414,1.548,2.114,2.114,0,0,1-1.686.674H9.3a6.008,6.008,0,0,1-1.226-.138q-.659-.138-1.042-.245T6.008,14.7a6.93,6.93,0,0,0-1.349-.383.5.5,0,0,1-.383-.169.623.623,0,0,1-.169-.383V8.3a.554.554,0,0,1,.153-.383.48.48,0,0,1,.368-.169q.2-.015.644-.506t.874-1.027A12.328,12.328,0,0,1,7,5.184a1.251,1.251,0,0,0,.261-.414q.107-.261.153-.414t.123-.521q.061-.337.107-.521a2.519,2.519,0,0,1,.169-.444,1.507,1.507,0,0,1,.291-.429.5.5,0,0,1,.383-.169,2.559,2.559,0,0,1,.705.092,1.558,1.558,0,0,1,.506.23,1.756,1.756,0,0,1,.337.337,1.329,1.329,0,0,1,.215.383,3.281,3.281,0,0,1,.107.429,1.383,1.383,0,0,1,.031.383,1.314,1.314,0,0,0,.015.337,2.5,2.5,0,0,1-.092.659q-.092.337-.153.506a3.047,3.047,0,0,1-.245.475.529.529,0,0,1-.077.153.707.707,0,0,0-.092.2,1.152,1.152,0,0,1-.077.2h2.376a1.676,1.676,0,0,1,1.64,1.64Z" transform="translate(0 -2.272)" fill="#346d99"/>
</svg>
