<svg xmlns="http://www.w3.org/2000/svg" width="13.4" height="14.526" viewBox="0 0 13.4 14.526">
  <path id="thumbs-down" d="M2.236,5.071a.506.506,0,0,0-.172-.391.636.636,0,0,0-.391-.172.47.47,0,0,0-.391.172.53.53,0,0,0,0,.782.47.47,0,0,0,.391.172.636.636,0,0,0,.391-.172A.506.506,0,0,0,2.236,5.071ZM12.29,10.09a1.732,1.732,0,0,0-.188-.7q-.188-.407-.469-.407a1.446,1.446,0,0,0,.219-.422,1.206,1.206,0,0,0,.078-.485,1.388,1.388,0,0,0-.453-1.032,1.15,1.15,0,0,0,.156-.594,1.418,1.418,0,0,0-.156-.641,1.131,1.131,0,0,0-.407-.469,3.908,3.908,0,0,0,.031-.485,1.359,1.359,0,0,0-.422-1.095A1.779,1.779,0,0,0,9.491,3.4H8.381a9.622,9.622,0,0,0-2.986.641l-.25.078q-.2.063-.313.109t-.313.109q-.2.063-.328.094t-.281.063a.883.883,0,0,1-.281.016H3.346V10.09h.281a.765.765,0,0,1,.313.078,1.346,1.346,0,0,1,.344.235l.344.313a2.623,2.623,0,0,1,.344.391q.172.235.3.375t.281.344l.2.266q.469.594.672.8a2.166,2.166,0,0,1,.516.954q.156.579.266,1.095a1.575,1.575,0,0,0,.328.751,1.266,1.266,0,0,0,1.126-.422A2.226,2.226,0,0,0,8.928,14a3.579,3.579,0,0,0-.407-1.392A3.859,3.859,0,0,1,8.1,11.216h3.065A1.178,1.178,0,0,0,12.29,10.09Zm1.11.016a2.169,2.169,0,0,1-.657,1.564,2.076,2.076,0,0,1-1.579.657H9.632A3.785,3.785,0,0,1,10.054,14a3.523,3.523,0,0,1-.313,1.626,1.851,1.851,0,0,1-.891.891,3.029,3.029,0,0,1-1.313.281,1.1,1.1,0,0,1-.782-.328,1.984,1.984,0,0,1-.469-.7,3.166,3.166,0,0,1-.219-.8,4.389,4.389,0,0,0-.156-.735,1.772,1.772,0,0,0-.266-.563,13.168,13.168,0,0,1-.938-1.11,7.636,7.636,0,0,0-1.2-1.345H1.11a1.068,1.068,0,0,1-.782-.328A1.086,1.086,0,0,1,0,10.09V4.508a1.068,1.068,0,0,1,.328-.782A1.068,1.068,0,0,1,1.11,3.4H3.628a6.431,6.431,0,0,0,1.2-.36q1.126-.375,1.954-.563a8.506,8.506,0,0,1,1.736-.2h.985a2.8,2.8,0,0,1,1.97.688,2.439,2.439,0,0,1,.751,1.892V4.9a2.473,2.473,0,0,1,.516,1.548q0,.188-.016.375a2.549,2.549,0,0,1,.328,1.251,2.271,2.271,0,0,1-.078.61,2.532,2.532,0,0,1,.422,1.423Z" transform="translate(0 -2.272)" fill="#999"/>
</svg>
