<svg xmlns="http://www.w3.org/2000/svg" width="13.827" height="11.267" viewBox="0 0 13.827 11.267">
  <path id="truck" d="M5.741,13.791a1.027,1.027,0,0,0-.3-.731.911.911,0,0,0-.717-.3,1.059,1.059,0,0,0-.717.3,1.013,1.013,0,0,0-.315.731.846.846,0,0,0,.315.717,1.254,1.254,0,0,0,.717.3.9.9,0,0,0,.717-.3A.9.9,0,0,0,5.741,13.791Zm-3.067-4.1H5.741V7.642H4.48a.235.235,0,0,0-.172.072L2.746,9.276a.235.235,0,0,0-.072.172v.244Zm10.234,4.1a1.027,1.027,0,0,0-.3-.731.911.911,0,0,0-.717-.3,1.059,1.059,0,0,0-.717.3,1.013,1.013,0,0,0-.315.731.846.846,0,0,0,.315.717,1.254,1.254,0,0,0,.717.3,1.028,1.028,0,0,0,1.018-1.018Zm2.05-8.7v8.184a.779.779,0,0,1-.029.215.219.219,0,0,1-.115.143.5.5,0,0,0-.129.086.325.325,0,0,1-.186.057q-.143.014-.186.014H13.94a2.047,2.047,0,0,1-3.5,1.448,1.974,1.974,0,0,1-.6-1.448H6.773a1.974,1.974,0,0,1-.6,1.448,1.974,1.974,0,0,1-1.448.6,1.974,1.974,0,0,1-1.448-.6,1.974,1.974,0,0,1-.6-1.448h-.9a1.521,1.521,0,0,1-.172-.014.476.476,0,0,1-.186-.057,1.51,1.51,0,0,1-.129-.086.468.468,0,0,1-.115-.143.281.281,0,0,1-.029-.215.486.486,0,0,1,.143-.358.54.54,0,0,1,.358-.158V9.62a2.011,2.011,0,0,1,.029-.272q.029-.186.043-.3A.51.51,0,0,1,1.828,8.8q.1-.129.186-.244L3.591,6.983a1.211,1.211,0,0,1,.4-.258,1.239,1.239,0,0,1,.473-.1H5.741V5.091A.51.51,0,0,1,5.9,4.718a.446.446,0,0,1,.358-.143h8.184a.486.486,0,0,1,.358.143.556.556,0,0,1,.158.373Z" transform="translate(-1.131 -4.573)" fill="#f6c64b"/>
</svg>
